<svg id="Layer_5" enable-background="new 0 0 64 64" height="512" viewBox="0 0 64 64" width="512" xmlns="http://www.w3.org/2000/svg" xmlns:xlink="http://www.w3.org/1999/xlink"><linearGradient id="SVGID_1_" gradientUnits="userSpaceOnUse" x1="32" x2="32" y1="63" y2="1"><stop offset="0" stop-color="#9f2fff"/><stop offset="1" stop-color="#0bb1d3"/></linearGradient><path d="m32 15c-3.309 0-6 2.691-6 6s2.691 6 6 6 6-2.691 6-6-2.691-6-6-6zm0 10c-2.206 0-4-1.794-4-4s1.794-4 4-4 4 1.794 4 4-1.794 4-4 4zm1-18h-2v-2h2zm-11.606 4.808-1.414-1.414 1.414-1.414 1.414 1.414zm-5.394 8.192h2v2h-2zm5.394 10.192 1.414 1.414-1.414 1.414-1.414-1.414zm9.606 4.808h2v2h-2zm11.606-4.808 1.414 1.414-1.414 1.414-1.414-1.414zm5.394-8.192h-2v-2h2zm-5.394-13.021 1.414 1.414-1.414 1.414-1.414-1.414zm-10.606.021c-6.617 0-12 5.383-12 12s5.383 12 12 12 12-5.383 12-12-5.383-12-12-12zm0 22c-5.514 0-10-4.486-10-10s4.486-10 10-10 10 4.486 10 10-4.486 10-10 10zm27 12h-6v-13.5l-3.902-2.926c.106-.326.208-.653.295-.984l2.607-.869v-7.441l-2.606-.869c-.411-1.561-1.032-3.057-1.852-4.46l1.231-2.461-5.263-5.263-2.46 1.231c-1.403-.819-2.899-1.44-4.46-1.852l-.869-2.606h-7.441l-.87 2.606c-1.561.411-3.057 1.032-4.46 1.852l-2.461-1.231-5.263 5.263 1.231 2.461c-.819 1.403-1.44 2.899-1.852 4.46l-2.605.868v7.441l2.606.869c.087.332.189.659.295.984l-3.901 2.927v13.5h-6v2h-4v16h7.021c.939 1.246 2.416 2 3.979 2s3.04-.754 3.979-2h7.021v-16h-4v-2h-6v-12.5l2.663-1.998c.242.526.501 1.044.795 1.547l-1.231 2.461 5.263 5.263 2.461-1.231c1.403.819 2.899 1.44 4.46 1.852l.868 2.606h7.441l.869-2.606c1.561-.411 3.057-1.032 4.46-1.852l2.461 1.231 5.263-5.263-1.231-2.461c.294-.503.553-1.022.795-1.547l2.663 1.998v12.5h-6v2h-4v16h7.021c.939 1.246 2.416 2 3.979 2s3.04-.754 3.979-2h7.021v-16h-4zm-38 4v12h-6.13l-.289.497c-.548.941-1.513 1.503-2.581 1.503s-2.033-.562-2.581-1.503l-.289-.497h-6.13v-12h2v10h14v-10zm-4 8h-10v-10h10zm26.116-19.66-2.167-1.084-.477.298c-1.514.948-3.156 1.63-4.881 2.026l-.548.126-.764 2.294h-4.559l-.765-2.294-.548-.126c-1.725-.396-3.367-1.078-4.881-2.026l-.477-.298-2.167 1.084-3.224-3.224 1.084-2.167-.298-.477c-.948-1.514-1.63-3.156-2.026-4.881l-.126-.548-2.292-.764v-4.559l2.294-.765.126-.548c.396-1.725 1.078-3.367 2.026-4.881l.298-.477-1.084-2.165 3.224-3.224 2.167 1.084.477-.298c1.514-.948 3.156-1.63 4.881-2.026l.548-.126.764-2.294h4.559l.765 2.294.548.126c1.725.396 3.367 1.078 4.881 2.026l.477.298 2.167-1.084 3.224 3.224-1.084 2.167.298.477c.948 1.514 1.63 3.156 2.026 4.881l.126.548 2.292.764v4.559l-2.294.765-.126.548c-.396 1.725-1.078 3.367-2.026 4.881l-.298.477 1.084 2.167zm3.884 9.66h10v10h-10zm14 2v12h-6.13l-.289.497c-.548.941-1.513 1.503-2.581 1.503s-2.033-.562-2.581-1.503l-.289-.497h-6.13v-12h2v10h14v-10zm-12 0h6v2h-6zm0 4h6v2h-6zm-34-2h-6v-2h6zm0 4h-6v-2h6zm8.586-2h3.414v12h10v-12h3.414l-8.414-8.414zm11.414-2v12h-6v-12h-.586l3.586-3.586 3.586 3.586z" fill="url(#SVGID_1_)"/></svg>