<svg id="Layer_1" enable-background="new 0 0 512 512" height="512" viewBox="0 0 512 512" width="512" xmlns="http://www.w3.org/2000/svg"><g><path d="m497 241c-110.872 0-205.494 70.854-241 169.654-35.506-98.8-130.128-169.654-241-169.654-8.284 0-15 6.716-15 15 0 141.159 114.841 256 256 256s256-114.841 256-256c0-8.284-6.716-15-15-15z" fill="#73df00"/><path d="m256 512c141.159 0 256-114.841 256-256 0-8.284-6.716-15-15-15-110.872 0-205.494 70.854-241 169.654z" fill="#00be00"/><g fill="#00dce5"><path d="m188.605 188.581c-5.858 5.858-5.858 15.355 0 21.213s15.355 5.858 21.213 0c25.505-25.505 66.858-25.505 92.363 0 5.858 5.858 15.355 5.858 21.213 0s5.858-15.355 0-21.213c-37.22-37.221-97.568-37.221-134.789 0z"/><path d="m131.802 131.778c-5.858 5.858-5.858 15.355 0 21.213s15.355 5.858 21.213 0c56.877-56.877 149.093-56.877 205.97 0 5.858 5.858 15.355 5.858 21.213 0s5.858-15.355 0-21.213c-68.593-68.593-179.803-68.593-248.396 0z"/><path d="m437.002 74.974c-99.965-99.965-262.04-99.965-362.005 0-5.858 5.858-5.858 15.355 0 21.213s15.355 5.858 21.213 0c88.249-88.249 231.329-88.249 319.578 0 5.858 5.858 15.355 5.858 21.213 0 5.859-5.858 5.859-15.355.001-21.213z"/></g><path d="m323.395 209.795c5.858-5.858 5.858-15.355 0-21.213-18.611-18.61-43.003-27.916-67.395-27.916v30c16.714 0 33.429 6.376 46.182 19.129 5.857 5.857 15.355 5.857 21.213 0z" fill="#00a2c5"/><path d="m358.985 152.991c5.858 5.858 15.355 5.858 21.213 0s5.858-15.355 0-21.213c-34.296-34.297-79.247-51.445-124.198-51.445v30c37.273 0 74.547 14.219 102.985 42.658z" fill="#00a2c5"/><path d="m437.002 96.187c5.858-5.858 5.858-15.355 0-21.213-49.982-49.983-115.492-74.974-181.002-74.974v30c57.832 0 115.665 22.062 159.789 66.187 5.858 5.858 15.356 5.858 21.213 0z" fill="#00a2c5"/></g></svg>